<svg width="16" height="15" viewBox="0 0 16 15" fill="none" xmlns="http://www.w3.org/2000/svg">
<g clip-path="url(#clip0_47_710)">
<path d="M5.80268 0.630765C5.8262 0.539185 5.87874 0.457687 5.95246 0.398476C6.02617 0.339265 6.11708 0.305528 6.21158 0.302316L9.70949 0.181389C9.77874 0.179047 9.84755 0.193186 9.91026 0.22264C9.97297 0.252095 10.0278 0.296023 10.0702 0.350808C10.1126 0.405593 10.1414 0.469669 10.1542 0.537761C10.167 0.605852 10.1635 0.676012 10.1439 0.742465L8.74881 5.46774L12.0771 5.35267C12.159 5.34979 12.24 5.36995 12.311 5.41086C12.382 5.45178 12.44 5.5118 12.4786 5.5841C12.5171 5.6564 12.5346 5.73807 12.529 5.81981C12.5234 5.90155 12.4949 5.98007 12.4469 6.04644L6.59763 14.1284C6.53773 14.2115 6.45051 14.271 6.35121 14.2965C6.25191 14.3219 6.14682 14.3117 6.0543 14.2676C5.96177 14.2234 5.88768 14.1482 5.84495 14.0551C5.80221 13.9619 5.79356 13.8566 5.82049 13.7577L7.21848 8.58497L4.31259 8.68543C4.24461 8.68782 4.17701 8.67433 4.11516 8.64603C4.05331 8.61772 3.99892 8.57539 3.95629 8.52238C3.91366 8.46938 3.88398 8.40717 3.8696 8.34069C3.85522 8.2742 3.85655 8.20529 3.87346 8.1394L5.80268 0.630765Z" fill="black"/>
</g>
<defs>
<clipPath id="clip0_47_710">
<rect width="14" height="14" fill="white" transform="translate(0.964722 0.483704) rotate(-1.98001)"/>
</clipPath>
</defs>
</svg>
