<svg width="20" height="20" viewBox="0 0 20 20" fill="none" xmlns="http://www.w3.org/2000/svg">
<path d="M7.40422 4.68521L5.07598 6.78311M16.5534 17.3219L16.5298 17.06C16.4463 16.1336 16.4045 15.6703 16.2774 15.2332C16.1647 14.8454 16.0024 14.4737 15.7946 14.1274C15.5604 13.737 15.2491 13.3915 14.6264 12.7004L10.3066 7.90628L5.98688 3.11216C5.40752 2.46923 4.41671 2.41766 3.77374 2.99698C3.13085 3.5763 3.07928 4.56713 3.65856 5.21006L12.4566 14.9742C13.0216 15.6012 13.304 15.9147 13.6311 16.1692C13.9214 16.3952 14.2373 16.5864 14.5721 16.7388C14.9494 16.9105 15.3582 17.0153 16.1756 17.2249L16.5534 17.3219Z" stroke="black" stroke-width="1.567" stroke-linecap="round" stroke-linejoin="round"/>
<path d="M16.0537 15.7378L15.5537 16.7378L13.6631 16.2652L5.55371 7.23784L7.55371 5.23784L15.0537 13.7378L16.0537 15.7378Z" fill="black"/>
<path d="M13.5537 16.2378L13.6631 16.2652M13.6631 16.2652L15.5537 16.7378L16.0537 15.7378L15.0537 13.7378L7.55371 5.23784L5.55371 7.23784L13.6631 16.2652Z" stroke="black"/>
</svg>
